<svg version="1.1" id="Layer_1" xmlns="http://www.w3.org/2000/svg" xmlns:xlink="http://www.w3.org/1999/xlink" x="0px" y="0px"
	 width="100%" viewBox="0 0 1024 1024" enable-background="new 0 0 1024 1024" xml:space="preserve">
<path fill="#FEFEFF" opacity="1.000000" stroke="none" 
	d="
M729.000000,1025.000000 
	C724.310730,1025.000000 719.621521,1025.000000 714.610107,1024.934814 
	C714.424011,1024.713501 714.447632,1024.542969 714.266357,1023.888489 
	C713.862122,1023.350647 713.550354,1023.282410 713.013794,1023.074829 
	C712.111877,1023.028931 711.434814,1023.122498 710.280151,1023.329712 
	C709.747437,1023.766052 709.692444,1024.088745 709.617798,1024.531494 
	C709.654846,1024.852905 709.788879,1024.968994 710.000000,1025.000000 
	C705.975464,1025.000000 701.950928,1025.000000 697.865967,1024.654541 
	C696.794434,1023.937805 695.783447,1023.566406 694.772400,1023.194946 
	C694.848267,1023.796631 694.924133,1024.398315 695.000000,1025.000000 
	C691.969421,1025.000000 688.938782,1025.000000 685.847595,1024.631592 
	C683.874146,1023.794739 681.961670,1022.918945 680.048340,1022.917053 
	C618.018555,1022.855225 555.988708,1022.875305 493.958862,1022.899536 
	C492.305389,1022.900146 490.649231,1023.059082 489.007660,1023.255554 
	C488.936554,1023.264038 488.999512,1024.392944 489.000000,1025.000000 
	C487.285645,1025.000000 485.571289,1025.000000 483.861481,1024.686523 
	C483.729736,1024.043823 483.593445,1023.714478 483.262207,1023.204529 
	C482.718445,1023.075500 482.369629,1023.127197 481.685425,1023.094360 
	C480.895905,1023.067078 480.441803,1023.124268 479.744812,1023.095276 
	C479.338074,1023.060974 479.174255,1023.112854 478.586670,1023.074463 
	C476.436005,1023.042419 474.709106,1023.100647 472.675110,1023.060791 
	C471.784882,1023.102356 471.201752,1023.242004 470.392792,1023.862000 
	C470.444641,1024.561523 470.722321,1024.780762 471.000000,1025.000000 
	C469.285645,1025.000000 467.571289,1025.000000 465.814545,1024.640137 
	C462.360107,1024.005493 458.948090,1023.730774 455.536041,1023.456055 
	C455.690674,1023.970642 455.845337,1024.485352 456.000000,1025.000000 
	C451.975464,1025.000000 447.950897,1025.000000 443.861267,1024.657959 
	C442.790100,1023.949524 441.784058,1023.583069 440.778015,1023.216553 
	C440.851990,1023.811035 440.925995,1024.405518 441.000000,1025.000000 
	C439.285645,1025.000000 437.571289,1025.000000 435.833801,1024.700195 
	C435.679169,1024.091064 435.547699,1023.781677 435.189117,1023.245911 
	C434.170959,1023.168518 433.379883,1023.317566 432.389038,1023.931030 
	C432.459503,1024.596924 432.729767,1024.798462 433.000000,1025.000000 
	C431.285645,1025.000000 429.571289,1025.000000 427.828583,1024.656738 
	C426.792358,1023.945068 425.784485,1023.576843 424.776611,1023.208618 
	C424.851074,1023.805725 424.925537,1024.402832 425.000000,1025.000000 
	C417.979034,1025.000000 410.958099,1025.000000 403.907166,1024.669922 
	C403.729828,1024.004883 403.582428,1023.669861 403.240540,1023.160156 
	C402.702484,1023.037048 402.358978,1023.088562 401.680908,1023.057373 
	C400.893616,1023.030762 400.440918,1023.086792 399.731445,1023.055054 
	C399.168152,1023.097656 398.861633,1023.227966 398.341675,1023.856750 
	C398.418793,1024.570190 398.709381,1024.785156 399.000000,1025.000000 
	C397.933319,1025.000000 396.866669,1025.000000 395.524780,1024.574463 
	C394.875610,1024.067383 394.501678,1023.985901 394.127747,1023.904480 
	C394.085175,1024.269653 394.042572,1024.634888 394.000000,1025.000000 
	C394.000000,1025.000000 393.500000,1025.000000 393.657410,1024.693848 
	C393.679169,1024.076172 393.543488,1023.764709 393.181091,1023.229126 
	C392.166809,1023.154419 391.379181,1023.303772 390.388184,1023.920532 
	C390.456512,1024.591919 390.728271,1024.796021 391.000000,1025.000000 
	C387.307098,1025.000000 383.614166,1025.000000 379.859802,1024.656982 
	C378.790131,1023.946106 377.781952,1023.578125 376.773773,1023.210083 
	C376.849182,1023.806702 376.924591,1024.403320 377.000000,1025.000000 
	C375.611115,1025.000000 374.222198,1025.000000 372.807922,1024.650635 
	C370.351196,1024.019165 367.919861,1023.737061 365.488586,1023.454956 
	C365.659058,1023.969971 365.829529,1024.484985 366.000000,1025.000000 
	C365.250000,1025.000000 364.500000,1025.000000 363.499756,1024.574463 
	C362.875610,1024.067383 362.501678,1023.985962 362.127747,1023.904480 
	C362.085175,1024.269653 362.042572,1024.634766 362.000000,1025.000000 
	C354.645752,1025.000000 347.291504,1025.000000 339.882935,1024.681641 
	C339.685272,1024.045898 339.541931,1023.728394 339.172302,1023.190125 
	C338.164551,1023.117920 337.383026,1023.266541 336.387421,1023.890198 
	C336.448883,1024.576904 336.724426,1024.788452 337.000000,1025.000000 
	C335.285645,1025.000000 333.571289,1025.000000 331.830139,1024.655518 
	C330.792511,1023.940674 329.781647,1023.570435 328.770782,1023.200256 
	C328.847198,1023.800171 328.923584,1024.400146 329.000000,1025.000000 
	C327.285645,1025.000000 325.571289,1025.000000 323.853882,1024.652588 
	C323.688568,1023.977051 323.526276,1023.648865 323.119751,1023.133667 
	C322.255127,1022.999268 321.634705,1023.051880 320.557190,1023.026367 
	C319.733429,1023.632141 319.366699,1024.316040 319.000000,1025.000000 
	C317.933319,1025.000000 316.866669,1025.000000 315.811646,1024.680054 
	C315.678314,1024.044189 315.533356,1023.728333 315.162476,1023.197144 
	C314.162476,1023.124146 313.388397,1023.266479 312.395325,1023.883057 
	C312.450867,1024.571533 312.725433,1024.785767 313.000000,1025.000000 
	C311.285645,1025.000000 309.571289,1025.000000 307.845337,1024.671875 
	C307.683746,1024.023438 307.533783,1023.703186 307.159973,1023.171204 
	C306.170074,1023.093872 305.404053,1023.228210 304.402893,1023.843872 
	C304.445160,1024.550049 304.722595,1024.775024 305.000000,1025.000000 
	C304.555542,1025.000000 304.111115,1025.000000 303.743744,1024.679932 
	C302.212463,1023.933350 300.604126,1023.506897 298.728149,1023.003418 
	C298.156342,1023.075745 297.852142,1023.225037 297.339813,1023.869995 
	C297.421112,1024.577148 297.710571,1024.788574 298.000000,1025.000000 
	C298.000000,1025.000000 297.500000,1025.000000 297.496948,1024.740601 
	C297.216797,1024.154175 296.939697,1023.827026 296.447815,1023.255066 
	C295.678375,1023.169128 295.123718,1023.328125 294.379028,1023.950195 
	C294.459320,1024.608887 294.729675,1024.804443 295.000000,1025.000000 
	C293.933319,1025.000000 292.866669,1025.000000 291.801697,1024.638550 
	C288.022552,1023.993225 284.241638,1023.709351 280.460754,1023.425537 
	C280.640503,1023.950378 280.820251,1024.475220 281.000000,1025.000000 
	C279.933319,1025.000000 278.866669,1025.000000 277.796692,1024.712158 
	C276.862701,1023.987000 275.932037,1023.549866 274.676453,1022.994507 
	C273.901276,1022.943787 273.451019,1023.011292 272.546814,1022.992432 
	C268.395782,1022.935547 264.698700,1022.964966 260.586426,1022.906982 
	C245.361496,1020.682617 230.262726,1019.728455 215.794983,1016.192444 
	C167.481613,1004.384338 127.120491,978.935791 94.245064,941.785217 
	C57.301365,900.037354 36.134895,851.476379 35.027584,795.427612 
	C34.043583,745.620544 34.674801,695.780884 34.659996,645.955566 
	C34.626026,531.638428 34.522293,417.321136 34.738583,303.004456 
	C34.772240,285.218140 34.497906,267.113983 37.524853,249.706085 
	C49.929989,178.364594 89.063995,125.206261 151.489182,89.310143 
	C187.046600,68.863708 225.810089,60.413128 266.861145,60.481899 
	C429.183289,60.753822 591.506165,60.590931 753.828796,60.557575 
	C808.133667,60.546417 857.119324,76.354553 899.802917,110.198692 
	C957.912354,156.274185 989.615845,215.985214 989.777710,290.739349 
	C990.137512,456.890472 989.942627,623.043030 989.841003,789.194885 
	C989.823425,817.906128 985.422424,845.977417 974.379578,872.649109 
	C946.242004,940.609985 897.427612,986.864624 827.927856,1011.112671 
	C807.836731,1018.122375 787.051514,1021.669128 765.829468,1022.877502 
	C764.516968,1022.952148 763.274841,1024.263794 762.000000,1025.000000 
	C760.611084,1025.000000 759.222229,1025.000000 757.478882,1024.559082 
	C754.225220,1023.901123 751.325989,1023.684143 748.426697,1023.467224 
	C748.617798,1023.978149 748.808899,1024.489014 749.000000,1025.000000 
	C743.977905,1025.000000 738.955811,1025.000000 733.870422,1024.655273 
	C732.136475,1023.937378 730.465759,1023.564331 728.795105,1023.191223 
	C728.863403,1023.794128 728.931702,1024.397095 729.000000,1025.000000 
M478.488892,449.126007 
	C478.350403,449.423492 478.211914,449.720978 478.005310,450.011597 
	C478.005310,450.011597 478.031799,450.074707 477.461578,450.315063 
	C476.934814,451.185516 476.408051,452.055969 475.966003,452.957031 
	C475.966003,452.957031 475.935913,452.872131 475.437134,453.059875 
	C475.300049,453.372314 475.162964,453.684723 474.443054,454.344299 
	C470.993469,459.837524 467.147675,465.124023 464.156647,470.856537 
	C438.973022,519.122986 437.896179,568.991760 454.626709,619.968689 
	C459.906982,636.057373 468.470978,650.502686 476.177704,665.018311 
	C427.655548,665.018311 379.133392,665.018311 330.878632,665.018311 
	C330.248413,659.368225 329.710510,654.545715 329.530518,649.252441 
	C329.545807,642.706848 329.497498,636.160339 329.591888,629.615906 
	C329.722137,620.580078 330.116730,611.545593 330.101929,602.510986 
	C330.090240,595.381409 329.631531,588.252502 329.925964,580.747437 
	C329.971741,557.502319 330.017517,534.257202 330.277130,510.113586 
	C330.194702,506.741852 330.112274,503.370148 330.201660,499.501678 
	C330.145050,499.335907 330.088470,499.170105 330.080353,498.369598 
	C329.761230,498.105743 329.442108,497.841888 329.182281,497.493683 
	C329.182281,497.493683 329.141907,497.398834 329.722382,497.079193 
	C329.529266,496.585052 329.336182,496.090912 329.199554,495.498505 
	C329.199554,495.498505 329.146027,495.398590 329.699097,495.111542 
	C329.530762,494.669220 329.362396,494.226868 329.200073,493.891571 
	C329.200073,493.891571 329.288330,493.830780 329.554138,493.356567 
	C329.723175,493.078278 330.039062,492.800629 330.040314,492.521576 
	C330.149109,468.326263 330.302521,444.130829 330.301788,419.935425 
	C330.300934,392.302551 330.161407,364.669678 330.270050,336.173218 
	C329.192596,335.149353 328.122650,333.241425 327.036652,333.232239 
	C305.793732,333.052338 284.548767,333.124420 263.304626,333.049652 
	C260.692261,333.040466 259.794250,334.040192 259.818329,336.554901 
	C259.937225,348.996857 259.966492,361.439636 259.847809,374.694946 
	C259.907043,375.798401 259.966248,376.901855 259.854034,378.928833 
	C259.919403,394.331451 259.984802,409.734039 259.877625,426.032928 
	C259.933167,441.313263 259.988739,456.593567 259.865906,472.797211 
	C259.921478,476.533691 259.977051,480.270172 259.859558,484.918518 
	C259.922302,488.951569 259.985016,492.984589 259.875854,497.939392 
	C259.838318,566.044312 260.006470,634.150513 259.610565,702.253296 
	C259.518036,718.173035 271.333069,735.338196 292.522491,735.146240 
	C356.129059,734.569824 419.743683,734.880981 483.355164,734.832153 
	C484.959656,734.830933 486.564026,734.671631 488.740417,734.555542 
	C488.740417,729.893921 488.716095,725.605957 488.744934,721.318420 
	C488.837769,707.510315 488.950256,693.702393 489.602905,680.272705 
	C492.203461,683.056152 494.742096,685.900696 497.415100,688.612732 
	C510.262390,701.647705 524.241028,713.179871 540.949097,720.989746 
	C540.949097,720.989746 540.871094,721.076904 541.259521,721.594666 
	C542.439331,722.089294 543.619202,722.583923 545.234131,723.603943 
	C546.488098,724.090393 547.742004,724.576843 549.165222,725.287415 
	C549.165222,725.287415 549.440918,725.234070 549.915222,725.800354 
	C554.611572,727.532043 559.307861,729.263733 564.567200,731.440979 
	C568.725403,732.595947 572.883606,733.750977 577.070862,734.978210 
	C577.070862,734.978210 577.119812,734.917603 577.764282,735.285217 
	C586.937805,736.703491 596.065979,738.715698 605.294006,739.419373 
	C626.041870,741.001282 646.333557,738.354065 666.581604,731.013428 
	C667.396729,730.627686 668.211853,730.241943 669.596680,729.899902 
	C670.063232,729.601807 670.529724,729.303650 671.000000,729.000000 
	C671.000000,729.000000 671.008057,729.000610 671.736938,728.987366 
	C674.148132,727.941589 676.559387,726.895813 679.663574,725.818298 
	C681.798706,724.665649 683.933838,723.513000 686.792664,722.225220 
	C690.206848,720.175110 693.620972,718.125000 697.739990,715.945007 
	C698.487671,715.622314 699.294800,715.393677 699.974304,714.963318 
	C719.767456,702.427002 736.446411,686.538696 749.823730,667.365845 
	C776.963684,628.468018 788.385803,585.106628 784.073120,538.016602 
	C779.258545,485.446808 755.661194,443.428589 711.024719,413.249695 
	C709.478333,412.336487 707.932007,411.423279 706.441956,410.667847 
	C706.441956,410.667847 706.345093,410.531158 705.932129,410.017853 
	C683.246704,395.907684 658.682678,387.392609 631.178833,384.951263 
	C619.765564,384.981018 608.289001,384.258972 596.953430,385.212769 
	C578.930359,386.729279 561.376038,390.795166 544.383118,398.749847 
	C544.249451,398.862610 544.115784,398.975342 543.401917,399.057526 
	C542.930298,399.369568 542.458679,399.681610 541.297791,400.010742 
	C539.876770,400.735168 538.455811,401.459625 536.380554,402.237946 
	C534.889038,403.080170 533.397583,403.922394 531.376770,404.873627 
	C531.240417,404.991364 531.104065,405.109100 530.480286,405.230225 
	C530.159912,405.373383 529.956543,405.615021 529.234924,406.004974 
	C528.185425,406.676514 527.135925,407.348083 526.022705,407.993622 
	C526.022705,407.993622 525.997253,408.057587 525.426880,408.098511 
	C525.169800,408.363800 524.912781,408.629089 523.994324,408.965698 
	C522.020691,410.318787 520.047058,411.671844 517.414490,413.158325 
	C515.966919,414.208252 514.519348,415.258179 512.454651,416.495728 
	C510.593719,417.975891 508.732788,419.456085 506.229858,421.125977 
	C505.181458,421.941803 504.016418,422.645081 503.102936,423.591156 
	C495.345398,431.625183 487.633667,439.703491 479.402100,447.994751 
	C479.254456,448.322479 479.106842,448.650208 479.003082,448.996674 
	C479.003082,448.996674 478.974518,448.958191 478.488892,449.126007 
z"/>
<path fill="#010102" opacity="1.000000" stroke="none" 
	d="
M762.468628,1025.000000 
	C763.274841,1024.263794 764.516968,1022.952148 765.829468,1022.877502 
	C787.051514,1021.669128 807.836731,1018.122375 827.927856,1011.112671 
	C897.427612,986.864624 946.242004,940.609985 974.379578,872.649109 
	C985.422424,845.977417 989.823425,817.906128 989.841003,789.194885 
	C989.942627,623.043030 990.137512,456.890472 989.777710,290.739349 
	C989.615845,215.985214 957.912354,156.274185 899.802917,110.198692 
	C857.119324,76.354553 808.133667,60.546417 753.828796,60.557575 
	C591.506165,60.590931 429.183289,60.753822 266.861145,60.481899 
	C225.810089,60.413128 187.046600,68.863708 151.489182,89.310143 
	C89.063995,125.206261 49.929989,178.364594 37.524853,249.706085 
	C34.497906,267.113983 34.772240,285.218140 34.738583,303.004456 
	C34.522293,417.321136 34.626026,531.638428 34.659996,645.955566 
	C34.674801,695.780884 34.043583,745.620544 35.027584,795.427612 
	C36.134895,851.476379 57.301365,900.037354 94.245064,941.785217 
	C127.120491,978.935791 167.481613,1004.384338 215.794983,1016.192444 
	C230.262726,1019.728455 245.361496,1020.682617 260.697754,1023.164734 
	C261.482880,1024.006592 261.741425,1024.503296 262.000000,1025.000000 
	C175.010513,1025.000000 88.021034,1025.000000 1.015775,1025.000000 
	C1.015775,683.718445 1.015775,342.436890 1.015775,1.077664 
	C342.240295,1.077664 683.480652,1.077664 1024.860474,1.077664 
	C1024.860474,342.333282 1024.860474,683.666626 1024.860474,1025.000000 
	C937.581055,1025.000000 850.259216,1025.000000 762.468628,1025.000000 
z"/>
<path fill="#626067" opacity="1.000000" stroke="none" 
	d="
M489.468658,1025.000000 
	C488.999512,1024.392944 488.936554,1023.264038 489.007660,1023.255554 
	C490.649231,1023.059082 492.305389,1022.900146 493.958862,1022.899536 
	C555.988708,1022.875305 618.018555,1022.855225 680.048340,1022.917053 
	C681.961670,1022.918945 683.874146,1023.794739 685.393494,1024.631592 
	C619.979126,1025.000000 554.958191,1025.000000 489.468658,1025.000000 
z"/>
<path fill="#3B3941" opacity="1.000000" stroke="none" 
	d="
M262.466125,1025.000000 
	C261.741425,1024.503296 261.482880,1024.006592 261.112976,1023.252075 
	C264.698700,1022.964966 268.395782,1022.935547 272.690735,1023.212524 
	C273.859528,1023.383484 274.430450,1023.248108 275.001343,1023.112671 
	C275.932037,1023.549866 276.862701,1023.987000 277.396667,1024.712158 
	C272.310760,1025.000000 267.621490,1025.000000 262.466125,1025.000000 
z"/>
<path fill="#56525B" opacity="1.000000" stroke="none" 
	d="
M472.982239,1023.158936 
	C474.709106,1023.100647 476.436005,1023.042419 478.674194,1023.225586 
	C479.452911,1023.371887 479.720306,1023.276672 479.987701,1023.181396 
	C480.441803,1023.124268 480.895905,1023.067078 481.882294,1023.306396 
	C482.762146,1023.530396 483.109650,1023.457764 483.457184,1023.385193 
	C483.593445,1023.714478 483.729736,1024.043823 483.433014,1024.686523 
	C479.307098,1025.000000 475.614166,1025.000000 471.460632,1025.000000 
	C470.722321,1024.780762 470.444641,1024.561523 470.673492,1024.074585 
	C471.780762,1023.590820 472.381500,1023.374878 472.982239,1023.158936 
z"/>
<path fill="#56525B" opacity="1.000000" stroke="none" 
	d="
M281.454102,1025.000000 
	C280.820251,1024.475220 280.640503,1023.950378 280.460754,1023.425537 
	C284.241638,1023.709351 288.022552,1023.993225 291.401733,1024.638550 
	C287.969391,1025.000000 284.938812,1025.000000 281.454102,1025.000000 
z"/>
<path fill="#56525B" opacity="1.000000" stroke="none" 
	d="
M456.449982,1025.000000 
	C455.845337,1024.485352 455.690674,1023.970642 455.536041,1023.456055 
	C458.948090,1023.730774 462.360107,1024.005493 465.386078,1024.640137 
	C462.299988,1025.000000 459.599976,1025.000000 456.449982,1025.000000 
z"/>
<path fill="#524F55" opacity="1.000000" stroke="none" 
	d="
M749.444153,1025.000000 
	C748.808899,1024.489014 748.617798,1023.978149 748.426697,1023.467224 
	C751.325989,1023.684143 754.225220,1023.901123 757.062256,1024.559082 
	C754.629456,1025.000000 752.258850,1025.000000 749.444153,1025.000000 
z"/>
<path fill="#56525B" opacity="1.000000" stroke="none" 
	d="
M366.428467,1025.000000 
	C365.829529,1024.484985 365.659058,1023.969971 365.488586,1023.454956 
	C367.919861,1023.737061 370.351196,1024.019165 372.391235,1024.650635 
	C370.285645,1025.000000 368.571289,1025.000000 366.428467,1025.000000 
z"/>
<path fill="#56525B" opacity="1.000000" stroke="none" 
	d="
M298.416687,1025.000000 
	C297.710571,1024.788574 297.421112,1024.577148 297.591461,1024.039307 
	C298.366058,1023.502075 298.680908,1023.291199 298.995728,1023.080322 
	C300.604126,1023.506897 302.212463,1023.933350 303.410400,1024.679932 
	C301.611115,1025.000000 300.222198,1025.000000 298.416687,1025.000000 
z"/>
<path fill="#524F55" opacity="1.000000" stroke="none" 
	d="
M729.399963,1025.000000 
	C728.931702,1024.397095 728.863403,1023.794128 728.795105,1023.191223 
	C730.465759,1023.564331 732.136475,1023.937378 733.403564,1024.655273 
	C731.933289,1025.000000 730.866638,1025.000000 729.399963,1025.000000 
z"/>
<path fill="#56525B" opacity="1.000000" stroke="none" 
	d="
M323.363983,1023.320679 
	C323.526276,1023.648865 323.688568,1023.977051 323.425415,1024.652588 
	C321.933319,1025.000000 320.866669,1025.000000 319.399994,1025.000000 
	C319.366699,1024.316040 319.733429,1023.632141 320.791687,1023.277710 
	C322.110168,1023.511719 322.737091,1023.416199 323.363983,1023.320679 
z"/>
<path fill="#56525B" opacity="1.000000" stroke="none" 
	d="
M399.399963,1025.000000 
	C398.709381,1024.785156 398.418793,1024.570190 398.580139,1024.038330 
	C399.350800,1023.528564 399.669525,1023.335693 399.988220,1023.142822 
	C400.440918,1023.086792 400.893616,1023.030762 401.875122,1023.273804 
	C402.747650,1023.493591 403.091370,1023.414246 403.435059,1023.334839 
	C403.582428,1023.669861 403.729828,1024.004883 403.438599,1024.669922 
	C401.933319,1025.000000 400.866669,1025.000000 399.399963,1025.000000 
z"/>
<path fill="#626067" opacity="1.000000" stroke="none" 
	d="
M441.333313,1025.000000 
	C440.925995,1024.405518 440.851990,1023.811035 440.778015,1023.216553 
	C441.784058,1023.583069 442.790100,1023.949524 443.398071,1024.657959 
	C442.555542,1025.000000 442.111115,1025.000000 441.333313,1025.000000 
z"/>
<path fill="#626067" opacity="1.000000" stroke="none" 
	d="
M425.333313,1025.000000 
	C424.925537,1024.402832 424.851074,1023.805725 424.776611,1023.208618 
	C425.784485,1023.576843 426.792358,1023.945068 427.400116,1024.656738 
	C426.555542,1025.000000 426.111115,1025.000000 425.333313,1025.000000 
z"/>
<path fill="#626067" opacity="1.000000" stroke="none" 
	d="
M377.333313,1025.000000 
	C376.924591,1024.403320 376.849182,1023.806702 376.773773,1023.210083 
	C377.781952,1023.578125 378.790131,1023.946106 379.399170,1024.656982 
	C378.555542,1025.000000 378.111115,1025.000000 377.333313,1025.000000 
z"/>
<path fill="#626067" opacity="1.000000" stroke="none" 
	d="
M695.333313,1025.000000 
	C694.924133,1024.398315 694.848267,1023.796631 694.772400,1023.194946 
	C695.783447,1023.566406 696.794434,1023.937805 697.402710,1024.654541 
	C696.555542,1025.000000 696.111084,1025.000000 695.333313,1025.000000 
z"/>
<path fill="#56525B" opacity="1.000000" stroke="none" 
	d="
M329.333313,1025.000000 
	C328.923584,1024.400146 328.847198,1023.800171 328.770782,1023.200256 
	C329.781647,1023.570435 330.792511,1023.940674 331.401672,1024.655518 
	C330.555542,1025.000000 330.111115,1025.000000 329.333313,1025.000000 
z"/>
<path fill="#56525B" opacity="1.000000" stroke="none" 
	d="
M315.388367,1023.412476 
	C315.533356,1023.728333 315.678314,1024.044189 315.411621,1024.680054 
	C314.555542,1025.000000 314.111115,1025.000000 313.333313,1025.000000 
	C312.725433,1024.785767 312.450867,1024.571533 312.844238,1024.087402 
	C314.137604,1023.682434 314.763000,1023.547424 315.388367,1023.412476 
z"/>
<path fill="#56525B" opacity="1.000000" stroke="none" 
	d="
M296.662598,1023.500000 
	C296.939697,1023.827026 297.216797,1024.154175 297.246948,1024.740601 
	C296.555542,1025.000000 296.111115,1025.000000 295.333313,1025.000000 
	C294.729675,1024.804443 294.459320,1024.608887 294.902252,1024.065430 
	C295.964539,1023.645020 296.313568,1023.572510 296.662598,1023.500000 
z"/>
<path fill="#56525B" opacity="1.000000" stroke="none" 
	d="
M307.383850,1023.382935 
	C307.533783,1023.703186 307.683746,1024.023438 307.416870,1024.671875 
	C306.555542,1025.000000 306.111115,1025.000000 305.333344,1025.000000 
	C304.722595,1024.775024 304.445160,1024.550049 304.844086,1024.061279 
	C306.141571,1023.659180 306.762726,1023.521057 307.383850,1023.382935 
z"/>
<path fill="#56525B" opacity="1.000000" stroke="none" 
	d="
M433.333344,1025.000000 
	C432.729767,1024.798462 432.459503,1024.596924 432.848755,1024.119385 
	C434.144257,1023.719727 434.780243,1023.596069 435.416199,1023.472412 
	C435.547699,1023.781677 435.679169,1024.091064 435.405334,1024.700195 
	C434.555542,1025.000000 434.111115,1025.000000 433.333344,1025.000000 
z"/>
<path fill="#56525B" opacity="1.000000" stroke="none" 
	d="
M339.398621,1023.410889 
	C339.541931,1023.728394 339.685272,1024.045898 339.414307,1024.681641 
	C338.555542,1025.000000 338.111115,1025.000000 337.333313,1025.000000 
	C336.724426,1024.788452 336.448883,1024.576904 336.840912,1024.093140 
	C338.138550,1023.684265 338.768585,1023.547607 339.398621,1023.410889 
z"/>
<path fill="#524F55" opacity="1.000000" stroke="none" 
	d="
M713.000000,1025.000000 
	C712.555542,1025.000000 712.111084,1025.000000 711.069824,1024.674316 
	C710.194580,1024.369507 709.916077,1024.390503 709.637512,1024.411377 
	C709.692444,1024.088745 709.747437,1023.766052 710.673950,1023.563538 
	C712.109802,1023.527222 712.674194,1023.370728 713.238647,1023.214233 
	C713.550354,1023.282410 713.862122,1023.350647 713.837158,1023.872925 
	C713.333557,1024.551392 713.166748,1024.775757 713.000000,1025.000000 
z"/>
<path fill="#56525B" opacity="1.000000" stroke="none" 
	d="
M393.407776,1023.453247 
	C393.543488,1023.764709 393.679169,1024.076172 393.407410,1024.693848 
	C392.555542,1025.000000 392.111115,1025.000000 391.333313,1025.000000 
	C390.728271,1024.796021 390.456512,1024.591919 390.846008,1024.112671 
	C392.140778,1023.709412 392.774261,1023.581299 393.407776,1023.453247 
z"/>
<path fill="#626067" opacity="1.000000" stroke="none" 
	d="
M709.617798,1024.531494 
	C709.916077,1024.390503 710.194580,1024.369507 710.736511,1024.674316 
	C711.000000,1025.000000 710.500000,1025.000000 710.250000,1025.000000 
	C709.788879,1024.968994 709.654846,1024.852905 709.617798,1024.531494 
z"/>
<path fill="#626067" opacity="1.000000" stroke="none" 
	d="
M362.250000,1025.000000 
	C362.042572,1024.634766 362.085175,1024.269653 362.127747,1023.904480 
	C362.501678,1023.985962 362.875610,1024.067383 363.124756,1024.574463 
	C363.000000,1025.000000 362.500000,1025.000000 362.250000,1025.000000 
z"/>
<path fill="#56525B" opacity="1.000000" stroke="none" 
	d="
M394.250000,1025.000000 
	C394.042572,1024.634888 394.085175,1024.269653 394.127747,1023.904480 
	C394.501678,1023.985901 394.875610,1024.067383 395.124756,1024.574463 
	C395.000000,1025.000000 394.500000,1025.000000 394.250000,1025.000000 
z"/>
<path fill="#626067" opacity="1.000000" stroke="none" 
	d="
M713.250000,1025.000000 
	C713.166748,1024.775757 713.333557,1024.551392 713.929626,1024.342529 
	C714.447632,1024.542969 714.424011,1024.713501 714.143921,1024.934814 
	C714.000000,1025.000000 713.500000,1025.000000 713.250000,1025.000000 
z"/>
<path fill="#05A4FA" opacity="1.000000" stroke="none" 
	d="
M489.055176,679.894348 
	C488.950256,693.702393 488.837769,707.510315 488.744934,721.318420 
	C488.716095,725.605957 488.740417,729.893921 488.740417,734.555542 
	C486.564026,734.671631 484.959656,734.830933 483.355164,734.832153 
	C419.743683,734.880981 356.129059,734.569824 292.522491,735.146240 
	C271.333069,735.338196 259.518036,718.173035 259.610565,702.253296 
	C260.006470,634.150513 259.838318,566.044312 260.250732,497.776672 
	C260.751648,499.424164 260.985229,501.234253 260.987335,503.044647 
	C261.013153,525.502686 261.002502,547.960815 261.012634,570.418884 
	C261.013306,571.912903 260.833191,573.478149 261.201569,574.888977 
	C263.193176,582.516357 265.331177,590.105530 267.523834,598.090576 
	C271.272461,593.709778 275.852783,596.557373 282.627258,606.796753 
	C285.886292,605.037292 288.922607,604.105469 289.220917,609.635437 
	C289.258545,610.332703 290.472839,611.025513 291.224426,611.615356 
	C295.261658,614.784119 299.324982,617.919556 303.246948,620.963806 
	C303.246948,622.333496 303.246948,623.919983 303.246948,625.506470 
	C304.355072,624.715759 305.392090,623.783142 306.594543,623.180664 
	C307.512909,622.720642 309.055237,622.147644 309.587616,622.563232 
	C310.642181,623.386475 311.454071,624.770264 311.891571,626.080750 
	C312.722168,628.568665 313.234863,631.164124 313.845917,633.722961 
	C314.104706,634.806641 314.733521,636.070374 314.414703,636.978638 
	C312.727051,641.786377 315.171082,643.642456 319.339539,644.674438 
	C324.032745,645.836365 326.013428,648.858704 324.610107,653.603027 
	C323.575043,657.102234 325.020264,658.425964 328.721649,658.812866 
	C328.881348,655.594238 329.026978,652.658691 329.172607,649.723145 
	C329.710510,654.545715 330.248413,659.368225 330.878632,665.018311 
	C379.133392,665.018311 427.655548,665.018311 476.951355,665.119934 
	C481.501709,670.112488 485.278412,675.003418 489.055176,679.894348 
M280.005676,613.453186 
	C283.177917,616.781738 284.606049,613.424133 286.665741,611.598328 
	C284.835480,610.478455 282.977997,609.738037 281.091339,609.653992 
	C280.625214,609.633240 280.064087,611.745605 280.005676,613.453186 
z"/>
<path fill="#03558B" opacity="1.000000" stroke="none" 
	d="
M489.329041,680.083496 
	C485.278412,675.003418 481.501709,670.112488 477.425018,665.062012 
	C468.470978,650.502686 459.906982,636.057373 454.626709,619.968689 
	C437.896179,568.991760 438.973022,519.122986 464.156647,470.856537 
	C467.147675,465.124023 470.993469,459.837524 474.954376,454.046143 
	C475.622437,453.455994 475.779175,453.164062 475.935913,452.872131 
	C475.935913,452.872131 475.966003,452.957031 476.274017,452.919006 
	C477.065277,451.945587 477.548553,451.010162 478.031799,450.074707 
	C478.031799,450.074707 478.005310,450.011597 478.246826,449.892670 
	C478.743805,449.557587 478.905853,449.285736 478.974518,448.958191 
	C478.974518,448.958191 479.003082,448.996674 479.218750,448.857178 
	C479.592316,448.401245 479.750214,448.084869 479.908142,447.768494 
	C487.633667,439.703491 495.345398,431.625183 503.102936,423.591156 
	C504.016418,422.645081 505.181458,421.941803 506.879578,421.174347 
	C511.027985,423.030670 514.526672,424.838623 517.888184,426.575684 
	C520.867920,423.945831 523.706787,421.440277 526.545715,418.934723 
	C526.207520,418.578217 525.869263,418.221741 525.531067,417.865234 
	C522.179565,419.151550 518.204712,418.844910 514.364746,416.995911 
	C513.925232,416.784271 513.502380,416.538208 513.071777,416.308105 
	C514.519348,415.258179 515.966919,414.208252 518.028809,413.316895 
	C521.204285,414.198151 523.845398,415.654144 526.298523,415.386719 
	C527.944885,415.207245 529.325012,412.585693 530.824280,411.056793 
	C529.244995,410.044403 527.665710,409.032013 526.086426,408.019623 
	C527.135925,407.348083 528.185425,406.676514 529.774902,405.925995 
	C530.607422,405.719147 530.825012,405.512421 530.967712,405.226837 
	C531.104065,405.109100 531.240417,404.991364 531.803467,405.159851 
	C534.251038,405.526611 536.272034,405.607147 538.292969,405.687683 
	C537.873535,404.519806 537.454163,403.351929 537.034790,402.184082 
	C538.455811,401.459625 539.876770,400.735168 541.933777,399.990845 
	C543.040527,399.676666 543.511353,399.382385 543.982117,399.088104 
	C544.115784,398.975342 544.249451,398.862610 544.693115,399.093384 
	C547.158142,402.496399 549.313110,405.555878 551.452515,408.593262 
	C553.820984,408.297668 556.097900,407.787262 558.370850,407.804596 
	C560.051880,407.817413 563.188965,408.587280 563.173950,408.900177 
	C563.057678,411.331909 562.603088,413.861847 561.574158,416.040833 
	C561.364014,416.485840 558.067017,415.994598 556.594971,415.194916 
	C554.606018,414.114502 553.102905,412.179626 551.216431,410.861786 
	C548.313721,408.833984 546.235107,409.934723 546.003052,413.454498 
	C545.570984,420.009308 542.225220,423.303925 536.866455,423.778046 
	C535.864502,427.995819 534.833252,431.634369 534.206909,435.341339 
	C533.976807,436.703430 534.704285,438.227295 534.842102,439.851624 
	C534.689270,440.025909 534.229614,440.084198 533.972412,440.145569 
	C533.474854,440.455872 533.234497,440.704834 532.827026,441.201324 
	C532.129395,441.699402 531.598938,441.949982 531.048523,441.804504 
	C529.776611,435.696655 523.634155,432.869995 520.074890,436.297546 
	C519.821533,439.070251 518.684631,441.589050 518.262878,444.222351 
	C517.849487,446.803375 515.024597,449.871918 518.973511,452.346771 
	C516.597961,454.784729 514.347900,456.912201 511.654602,459.027527 
	C509.897705,459.010986 508.403412,458.603058 507.310791,459.092224 
	C505.455963,459.922607 503.854309,461.318512 502.146271,462.476746 
	C503.648987,463.409607 505.151733,464.342499 506.489929,465.584381 
	C504.991028,467.500549 503.656677,469.107697 502.178955,470.361877 
	C501.181244,469.580078 500.326965,469.151276 499.472687,468.722412 
	C499.692657,469.917786 499.912628,471.113190 500.136475,472.602875 
	C500.030029,473.271240 499.919678,473.645264 499.631287,474.123444 
	C499.234955,474.409729 499.086517,474.637451 498.802856,475.039917 
	C498.597809,475.169189 498.124176,475.272583 498.064850,474.911255 
	C497.004150,471.928101 495.250732,470.970367 494.300049,474.138763 
	C493.662811,476.262817 494.802612,478.920074 495.012115,481.617432 
	C493.882202,482.928497 492.887482,483.960846 491.508667,484.995605 
	C489.892609,485.158630 488.660614,485.319214 487.082886,485.524841 
	C488.788239,487.004578 489.876770,487.949127 490.919678,489.253937 
	C464.843872,549.736694 472.921051,605.667053 512.388000,657.196350 
	C527.795288,677.312622 548.388489,691.089844 571.999878,700.616577 
	C568.940857,706.092346 575.530151,708.180237 575.361084,711.711853 
	C578.206116,712.193604 580.743164,712.512695 583.226379,713.071167 
	C586.438293,713.793579 586.739380,715.849915 585.018311,718.222229 
	C582.910034,721.128235 580.556274,723.856140 579.091064,725.684692 
	C579.830505,729.251282 580.421387,732.101318 580.730347,734.930359 
	C579.338867,734.912109 578.229309,734.914856 577.119812,734.917603 
	C577.119812,734.917603 577.070862,734.978210 577.044617,734.627747 
	C577.007324,733.858032 576.996216,733.438782 576.954102,732.717651 
	C576.518433,732.088989 576.113770,731.762146 575.709167,731.435364 
	C575.477661,731.955261 575.246155,732.475220 574.692627,732.957642 
	C573.908813,732.285767 573.447083,731.651428 573.044800,730.666382 
	C578.569031,726.105591 574.273132,722.919250 572.205750,719.639221 
	C570.969666,720.467773 569.769348,721.958496 568.732178,721.852600 
	C563.281616,721.295593 562.076660,724.969177 560.670593,728.912842 
	C558.542358,727.584900 556.763062,726.305908 554.932007,724.676392 
	C553.216064,722.322937 551.867981,722.188354 550.619019,725.027832 
	C549.962341,725.128418 549.701660,725.181213 549.440918,725.234070 
	C549.440918,725.234070 549.165222,725.287415 549.014160,724.801392 
	C547.508423,723.903137 546.153748,723.490845 544.799011,723.078491 
	C543.619202,722.583923 542.439331,722.089294 541.480347,721.313721 
	C543.324341,720.909485 544.947388,720.786194 546.570496,720.662964 
	C546.566101,720.335327 546.561646,720.007690 546.557190,719.680054 
	C545.024719,718.873779 543.492188,718.067505 541.516052,717.027832 
	C541.274170,718.660339 541.093506,719.880005 540.912842,721.099609 
	C524.241028,713.179871 510.262390,701.647705 497.415100,688.612732 
	C494.742096,685.900696 492.203461,683.056152 489.329041,680.083496 
M502.926331,433.353241 
	C502.580170,432.765808 502.234009,432.178406 501.887848,431.590973 
	C501.619904,432.095856 501.008270,432.869568 501.151581,433.052704 
	C501.511108,433.512329 502.212128,433.704803 502.926331,433.353241 
M565.675110,704.642578 
	C565.947205,703.961426 566.219238,703.280334 566.491272,702.599182 
	C565.920532,702.529907 565.349854,702.460693 564.779175,702.391418 
	C564.880798,703.051941 564.982483,703.712402 565.675110,704.642578 
M526.449402,431.322235 
	C527.214722,431.204620 527.980103,431.086975 528.745422,430.969360 
	C528.661865,430.530182 528.578308,430.091003 528.494690,429.651825 
	C527.780334,429.993317 527.066040,430.334808 526.449402,431.322235 
M540.509766,411.141266 
	C540.206421,411.568604 539.903015,411.995911 539.599609,412.423187 
	C540.048584,412.536987 540.497498,412.650787 540.946533,412.764618 
	C541.000183,412.264435 541.053833,411.764252 540.509766,411.141266 
M557.428040,719.702209 
	C557.702454,719.989624 557.976807,720.277100 558.251221,720.564514 
	C558.370178,720.450745 558.598755,720.244324 558.592163,720.236511 
	C558.336121,719.933472 558.058533,719.648438 557.428040,719.702209 
M559.702881,410.570740 
	C559.989624,410.296967 560.276306,410.023193 560.562988,409.749420 
	C560.449463,409.630768 560.243530,409.402649 560.235779,409.409180 
	C559.933411,409.664673 559.649109,409.941559 559.702881,410.570740 
M508.567902,428.296143 
	C508.295410,428.010590 508.022888,427.725067 507.750336,427.439514 
	C507.632172,427.552521 507.405029,427.757538 507.411560,427.765289 
	C507.665863,428.066467 507.941498,428.349609 508.567902,428.296143 
M509.429596,445.702881 
	C509.703247,445.989532 509.976868,446.276154 510.250549,446.562836 
	C510.369141,446.449341 510.597107,446.243469 510.590576,446.235687 
	C510.335205,445.933350 510.058411,445.649170 509.429596,445.702881 
M512.203125,454.610840 
	C512.207397,454.214966 512.211670,453.819092 512.216003,453.423248 
	C512.051697,453.421753 511.744629,453.409241 511.743774,453.420319 
	C511.713379,453.814240 511.711670,454.210388 512.203125,454.610840 
M493.796844,459.389435 
	C493.792664,459.785156 493.788483,460.180908 493.784302,460.576630 
	C493.948547,460.578156 494.255493,460.590668 494.256348,460.579620 
	C494.286682,460.185791 494.288391,459.789795 493.796844,459.389435 
M495.429504,465.702881 
	C495.703217,465.989563 495.976929,466.276215 496.250641,466.562897 
	C496.369293,466.449432 496.597351,466.243500 496.590820,466.235748 
	C496.335358,465.933411 496.058502,465.649139 495.429504,465.702881 
M488.203247,470.610718 
	C488.207428,470.214966 488.211609,469.819183 488.215790,469.423401 
	C488.051575,469.421875 487.744659,469.409363 487.743805,469.420441 
	C487.713440,469.814270 487.711731,470.210266 488.203247,470.610718 
M486.203247,494.611023 
	C486.207458,494.214996 486.211670,493.818970 486.215912,493.422943 
	C486.051575,493.421448 485.744385,493.408936 485.743530,493.420013 
	C485.713165,493.814117 485.711456,494.210419 486.203247,494.611023 
M559.387329,700.204041 
	C559.784424,700.208252 560.181519,700.212402 560.578613,700.216614 
	C560.580139,700.051819 560.592712,699.743835 560.581604,699.742981 
	C560.186401,699.712585 559.789062,699.710938 559.387329,700.204041 
M567.795959,717.387817 
	C567.791809,717.784668 567.787659,718.181458 567.783508,718.578308 
	C567.948181,718.579773 568.255920,718.592285 568.256775,718.581116 
	C568.287170,718.186218 568.288818,717.789185 567.795959,717.387817 
z"/>
<path fill="#03609A" opacity="1.000000" stroke="none" 
	d="
M711.176147,413.922699 
	C755.661194,443.428589 779.258545,485.446808 784.073120,538.016602 
	C788.385803,585.106628 776.963684,628.468018 749.823730,667.365845 
	C736.446411,686.538696 719.767456,702.427002 699.974304,714.963318 
	C699.294800,715.393677 698.487671,715.622314 697.236755,715.668030 
	C696.079102,710.851990 691.150757,707.020752 694.741943,701.741089 
	C696.860474,698.626526 701.308899,694.924988 693.837646,692.590942 
	C693.621826,692.523560 693.342590,692.011719 693.404785,691.797668 
	C694.640564,687.538940 690.946228,686.187805 688.971436,683.627747 
	C742.232605,642.036743 760.430725,587.641052 748.914307,522.471680 
	C745.273376,501.868347 735.824585,483.568878 723.441772,466.779968 
	C724.208618,464.927368 724.661377,463.267792 725.150208,461.475769 
	C717.544373,460.696930 714.397522,455.688629 710.997559,451.002075 
	C711.000000,451.000000 711.004883,450.995667 711.389160,450.996460 
	C713.594116,450.056061 715.509338,449.255798 717.200684,448.121765 
	C718.245178,447.421509 718.846558,446.091248 719.831177,445.263062 
	C721.080017,444.212646 722.515930,443.384705 723.871155,442.460785 
	C722.466858,440.924774 721.207520,439.216278 719.627869,437.888977 
	C716.409485,435.184723 712.971436,432.743317 709.717163,430.079681 
	C707.967712,428.647766 706.587769,425.956879 704.730347,425.636719 
	C701.131714,425.016479 700.769714,422.579102 700.227783,420.093048 
	C699.743286,417.870544 699.678345,415.556580 699.428955,413.289429 
	C699.891663,412.911621 700.222595,412.466492 700.655090,412.318634 
	C702.535583,411.675598 704.445740,411.119080 706.345093,410.531189 
	C706.345093,410.531158 706.441956,410.667847 706.387756,410.936157 
	C707.947754,412.110535 709.561951,413.016632 711.176147,413.922699 
z"/>
<path fill="#03B5FD" opacity="1.000000" stroke="none" 
	d="
M329.141907,497.398834 
	C329.141907,497.398834 329.182281,497.493683 329.199158,497.832214 
	C329.487976,498.448608 329.759918,498.726440 330.031860,499.004272 
	C330.088470,499.170105 330.145050,499.335907 329.816956,500.028687 
	C329.642578,504.041199 329.852936,507.526642 330.063293,511.012115 
	C330.017517,534.257202 329.971741,557.502319 329.250885,580.858582 
	C327.717468,578.786926 326.343079,576.661316 326.093414,574.411011 
	C325.191620,566.282837 324.716217,558.108276 323.978333,549.960449 
	C323.679993,546.665955 323.120483,543.395142 322.671844,540.054138 
	C312.223450,536.732483 305.351013,530.397095 309.035797,516.805664 
	C307.380310,517.332458 306.264221,517.343872 305.980194,517.835693 
	C304.515228,520.372437 302.659546,523.513367 299.746124,521.322388 
	C298.380066,520.295044 299.473724,516.147766 299.215027,513.437073 
	C299.074341,511.963165 298.826691,510.196136 297.930878,509.168182 
	C296.564026,507.599762 294.593872,506.557098 291.679565,504.404724 
	C289.161499,508.875183 286.786560,513.091553 283.940796,518.143738 
	C282.454071,517.277710 278.671387,516.231079 278.490753,514.746216 
	C278.002167,510.729309 274.454224,505.629364 281.209717,502.827942 
	C278.338623,500.606598 276.262482,500.266388 273.695160,502.353424 
	C272.508026,503.318573 270.234253,504.005035 268.913269,503.532227 
	C265.959900,502.475220 263.671143,495.471130 264.805756,492.435455 
	C266.483276,487.947266 264.887909,485.130005 260.032593,484.006653 
	C259.977051,480.270172 259.921478,476.533691 260.249451,472.058167 
	C260.737671,456.485504 260.852264,441.651886 260.908722,426.818054 
	C260.910858,426.258698 260.349152,425.697174 260.050171,425.136658 
	C259.984802,409.734039 259.919403,394.331451 260.320374,378.516846 
	C261.517670,379.085480 262.929382,380.116089 262.861694,381.038025 
	C262.569702,385.015564 264.387848,386.646027 267.889862,388.387207 
	C270.804474,389.836304 274.001190,393.137207 274.650421,396.141388 
	C275.563690,400.367249 276.371735,401.836609 280.568024,399.016846 
	C280.797516,403.377472 280.897308,407.127502 281.275238,410.849274 
	C281.348572,411.571533 282.442322,412.632111 283.179352,412.737213 
	C284.182556,412.880249 285.568909,412.551819 286.292603,411.884796 
	C287.220062,411.030090 287.583069,409.592377 288.310638,408.485626 
	C290.363525,405.362915 304.408447,404.816406 306.525543,407.790009 
	C306.874115,408.279633 306.883636,409.032318 306.983978,409.673706 
	C308.035645,416.394745 309.072632,417.252533 315.760468,416.584717 
	C316.126495,419.304871 317.373840,422.300415 316.694855,424.765320 
	C315.003296,430.905945 317.407257,434.639160 322.522186,437.549988 
	C322.170135,441.027100 324.480164,444.817505 321.135010,448.092834 
	C320.723297,448.495972 321.509399,450.224121 321.869049,451.295044 
	C323.105133,454.975647 325.208252,458.573151 325.503937,462.318909 
	C326.151245,470.518555 325.663513,478.803253 326.150360,487.022949 
	C326.287933,489.346039 328.193573,491.564392 329.288330,493.830780 
	C329.288330,493.830780 329.200073,493.891571 329.157288,494.241272 
	C329.125000,494.860168 329.135498,495.129395 329.146027,495.398590 
	C329.146027,495.398590 329.199554,495.498505 329.152161,495.998444 
	C329.117126,496.798523 329.129517,497.098694 329.141907,497.398834 
M267.268219,400.097443 
	C267.767670,400.042450 268.267120,399.987457 268.766571,399.932465 
	C268.651672,399.485260 268.536743,399.038086 268.421844,398.590881 
	C267.995453,398.893555 267.569061,399.196228 267.268219,400.097443 
z"/>
<path fill="#03ACFD" opacity="1.000000" stroke="none" 
	d="
M259.946106,484.462585 
	C264.887909,485.130005 266.483276,487.947266 264.805756,492.435455 
	C263.671143,495.471130 265.959900,502.475220 268.913269,503.532227 
	C270.234253,504.005035 272.508026,503.318573 273.695160,502.353424 
	C276.262482,500.266388 278.338623,500.606598 281.209717,502.827942 
	C274.454224,505.629364 278.002167,510.729309 278.490753,514.746216 
	C278.671387,516.231079 282.454071,517.277710 283.940796,518.143738 
	C286.786560,513.091553 289.161499,508.875183 291.679565,504.404724 
	C294.593872,506.557098 296.564026,507.599762 297.930878,509.168182 
	C298.826691,510.196136 299.074341,511.963165 299.215027,513.437073 
	C299.473724,516.147766 298.380066,520.295044 299.746124,521.322388 
	C302.659546,523.513367 304.515228,520.372437 305.980194,517.835693 
	C306.264221,517.343872 307.380310,517.332458 309.035797,516.805664 
	C305.351013,530.397095 312.223450,536.732483 322.671844,540.054138 
	C323.120483,543.395142 323.679993,546.665955 323.978333,549.960449 
	C324.716217,558.108276 325.191620,566.282837 326.093414,574.411011 
	C326.343079,576.661316 327.717468,578.786926 328.973572,581.046509 
	C329.631531,588.252502 330.090240,595.381409 330.101929,602.510986 
	C330.116730,611.545593 329.722137,620.580078 329.591888,629.615906 
	C329.497498,636.160339 329.545807,642.706848 329.351562,649.487793 
	C329.026978,652.658691 328.881348,655.594238 328.721649,658.812866 
	C325.020264,658.425964 323.575043,657.102234 324.610107,653.603027 
	C326.013428,648.858704 324.032745,645.836365 319.339539,644.674438 
	C315.171082,643.642456 312.727051,641.786377 314.414703,636.978638 
	C314.733521,636.070374 314.104706,634.806641 313.845917,633.722961 
	C313.234863,631.164124 312.722168,628.568665 311.891571,626.080750 
	C311.454071,624.770264 310.642181,623.386475 309.587616,622.563232 
	C309.055237,622.147644 307.512909,622.720642 306.594543,623.180664 
	C305.392090,623.783142 304.355072,624.715759 303.246948,625.506470 
	C303.246948,623.919983 303.246948,622.333496 303.246948,620.963806 
	C299.324982,617.919556 295.261658,614.784119 291.224426,611.615356 
	C290.472839,611.025513 289.258545,610.332703 289.220917,609.635437 
	C288.922607,604.105469 285.886292,605.037292 282.627258,606.796753 
	C275.852783,596.557373 271.272461,593.709778 267.523834,598.090576 
	C265.331177,590.105530 263.193176,582.516357 261.201569,574.888977 
	C260.833191,573.478149 261.013306,571.912903 261.012634,570.418884 
	C261.002502,547.960815 261.013153,525.502686 260.987335,503.044647 
	C260.985229,501.234253 260.751648,499.424164 260.336700,497.315796 
	C259.985016,492.984589 259.922302,488.951569 259.946106,484.462585 
z"/>
<path fill="#04BEFC" opacity="1.000000" stroke="none" 
	d="
M329.421234,493.593689 
	C328.193573,491.564392 326.287933,489.346039 326.150360,487.022949 
	C325.663513,478.803253 326.151245,470.518555 325.503937,462.318909 
	C325.208252,458.573151 323.105133,454.975647 321.869049,451.295044 
	C321.509399,450.224121 320.723297,448.495972 321.135010,448.092834 
	C324.480164,444.817505 322.170135,441.027100 322.522186,437.549988 
	C317.407257,434.639160 315.003296,430.905945 316.694855,424.765320 
	C317.373840,422.300415 316.126495,419.304871 315.760468,416.584717 
	C309.072632,417.252533 308.035645,416.394745 306.983978,409.673706 
	C306.883636,409.032318 306.874115,408.279633 306.525543,407.790009 
	C304.408447,404.816406 290.363525,405.362915 288.310638,408.485626 
	C287.583069,409.592377 287.220062,411.030090 286.292603,411.884796 
	C285.568909,412.551819 284.182556,412.880249 283.179352,412.737213 
	C282.442322,412.632111 281.348572,411.571533 281.275238,410.849274 
	C280.897308,407.127502 280.797516,403.377472 280.568024,399.016846 
	C276.371735,401.836609 275.563690,400.367249 274.650421,396.141388 
	C274.001190,393.137207 270.804474,389.836304 267.889862,388.387207 
	C264.387848,386.646027 262.569702,385.015564 262.861694,381.038025 
	C262.929382,380.116089 261.517670,379.085480 260.406067,378.055115 
	C259.966248,376.901855 259.907043,375.798401 260.234558,374.012543 
	C260.746307,372.517578 260.978394,371.705261 260.980042,370.892456 
	C261.001617,360.255554 260.886688,349.616333 261.116425,338.984406 
	C261.145874,337.620514 262.866241,335.176392 263.901520,335.122589 
	C275.120880,334.539581 286.358398,334.186340 297.593994,334.075958 
	C305.749725,333.995850 313.925964,334.136292 322.059143,334.682739 
	C324.723114,334.861786 328.357300,333.160095 330.082153,337.036804 
	C330.161407,364.669678 330.300934,392.302551 330.301788,419.935425 
	C330.302521,444.130829 330.149109,468.326263 330.040314,492.521576 
	C330.039062,492.800629 329.723175,493.078278 329.421234,493.593689 
z"/>
<path fill="#035890" opacity="1.000000" stroke="none" 
	d="
M534.994934,439.677368 
	C534.704285,438.227295 533.976807,436.703430 534.206909,435.341339 
	C534.833252,431.634369 535.864502,427.995819 536.866455,423.778046 
	C542.225220,423.303925 545.570984,420.009308 546.003052,413.454498 
	C546.235107,409.934723 548.313721,408.833984 551.216431,410.861786 
	C553.102905,412.179626 554.606018,414.114502 556.594971,415.194916 
	C558.067017,415.994598 561.364014,416.485840 561.574158,416.040833 
	C562.603088,413.861847 563.057678,411.331909 563.173950,408.900177 
	C563.188965,408.587280 560.051880,407.817413 558.370850,407.804596 
	C556.097900,407.787262 553.820984,408.297668 551.452515,408.593262 
	C549.313110,405.555878 547.158142,402.496399 544.951721,399.049011 
	C561.376038,390.795166 578.930359,386.729279 596.953430,385.212769 
	C608.289001,384.258972 619.765564,384.981018 631.537476,385.434143 
	C631.613831,387.416565 631.331482,388.916168 630.993042,390.713715 
	C635.419434,389.955139 638.724060,390.008545 640.108948,394.474945 
	C640.334351,395.202057 641.466980,395.737183 642.279663,396.177643 
	C645.994080,398.190857 649.503235,406.868378 647.806152,410.665619 
	C646.450012,413.699707 646.953674,415.908020 649.971863,417.150085 
	C653.510803,418.606537 657.290588,419.505707 660.756775,421.101074 
	C663.031860,422.148285 664.936584,424.000366 666.803101,425.486328 
	C666.323486,425.390015 666.124939,425.212921 665.796509,424.711731 
	C665.186768,424.375549 664.783936,424.277069 664.023926,424.170624 
	C641.890259,416.084808 619.462341,414.142914 596.485962,416.778564 
	C574.077209,419.349091 553.904541,427.782715 534.994934,439.677368 
z"/>
<path fill="#035C95" opacity="1.000000" stroke="none" 
	d="
M667.007141,425.491974 
	C664.936584,424.000366 663.031860,422.148285 660.756775,421.101074 
	C657.290588,419.505707 653.510803,418.606537 649.971863,417.150085 
	C646.953674,415.908020 646.450012,413.699707 647.806152,410.665619 
	C649.503235,406.868378 645.994080,398.190857 642.279663,396.177643 
	C641.466980,395.737183 640.334351,395.202057 640.108948,394.474945 
	C638.724060,390.008545 635.419434,389.955139 630.993042,390.713715 
	C631.331482,388.916168 631.613831,387.416565 631.947021,385.555725 
	C658.682678,387.392609 683.246704,395.907684 706.138611,410.274536 
	C704.445740,411.119080 702.535583,411.675598 700.655090,412.318634 
	C700.222595,412.466492 699.891663,412.911621 699.428955,413.289429 
	C699.678345,415.556580 699.743286,417.870544 700.227783,420.093048 
	C700.769714,422.579102 701.131714,425.016479 704.730347,425.636719 
	C706.587769,425.956879 707.967712,428.647766 709.717163,430.079681 
	C712.971436,432.743317 716.409485,435.184723 719.627869,437.888977 
	C721.207520,439.216278 722.466858,440.924774 723.871155,442.460785 
	C722.515930,443.384705 721.080017,444.212646 719.831177,445.263062 
	C718.846558,446.091248 718.245178,447.421509 717.200684,448.121765 
	C715.509338,449.255798 713.594116,450.056061 711.386353,450.631805 
	C710.762878,449.325592 710.526367,448.384827 710.289795,447.444061 
	C709.823486,447.677460 709.357178,447.910828 708.890808,448.144226 
	C709.592224,449.097534 710.293701,450.050842 710.995117,451.004181 
	C714.397522,455.688629 717.544373,460.696930 725.150208,461.475769 
	C724.661377,463.267792 724.208618,464.927368 723.181152,466.599609 
	C721.713684,465.452484 720.821045,464.292725 719.853394,462.891296 
	C719.523010,462.438965 719.267517,462.228333 718.710815,461.868134 
	C712.570251,456.195435 706.730957,450.672333 700.921997,444.753235 
	C699.754700,442.666382 698.556885,440.975494 697.289429,439.186218 
	C697.375549,439.105408 698.002747,438.516754 698.629944,437.928101 
	C698.280884,437.529968 697.931885,437.131866 697.582825,436.733734 
	C696.347778,437.841888 695.112793,438.950043 693.543213,439.987549 
	C684.474854,435.108582 675.740967,430.300262 667.007141,425.491974 
M711.702942,438.570282 
	C711.989563,438.296692 712.276184,438.023071 712.562744,437.749420 
	C712.449341,437.630798 712.243530,437.402802 712.235779,437.409302 
	C711.933472,437.664673 711.649292,437.941406 711.702942,438.570282 
z"/>
<path fill="#035C95" opacity="1.000000" stroke="none" 
	d="
M688.803589,683.926086 
	C690.946228,686.187805 694.640564,687.538940 693.404785,691.797668 
	C693.342590,692.011719 693.621826,692.523560 693.837646,692.590942 
	C701.308899,694.924988 696.860474,698.626526 694.741943,701.741089 
	C691.150757,707.020752 696.079102,710.851990 696.884277,715.733032 
	C693.620972,718.125000 690.206848,720.175110 686.518799,721.924927 
	C686.126038,720.279541 686.135437,718.899475 685.785461,717.617432 
	C685.711060,717.344971 684.019531,717.058960 683.595703,717.410095 
	C680.653381,719.847656 677.848938,722.451782 674.844482,725.305115 
	C673.461853,726.738708 672.234985,727.869690 671.008057,729.000610 
	C671.008057,729.000610 671.000000,729.000000 670.714966,729.017822 
	C669.962280,729.309082 669.494629,729.582581 669.026978,729.856079 
	C668.211853,730.241943 667.396729,730.627686 665.833496,730.992920 
	C663.723633,730.985535 662.361816,730.998657 661.000610,730.628418 
	C661.770020,724.864014 666.116699,724.115845 670.254089,722.979919 
	C671.893127,722.529968 673.419739,721.670532 675.297058,720.960571 
	C675.917297,720.516357 676.237976,720.109070 676.558655,719.701721 
	C676.039917,719.466980 675.521179,719.232239 674.968994,718.652344 
	C673.458679,714.297424 676.337402,712.708191 679.319031,710.957520 
	C680.092834,710.277527 680.545227,709.637512 681.144287,708.696777 
	C686.362427,704.008240 689.936401,699.179688 687.373413,691.853394 
	C686.665588,689.830017 687.093079,687.409363 687.172607,684.945618 
	C687.831543,684.455505 688.317566,684.190796 688.803589,683.926086 
M685.389587,710.203186 
	C685.785156,710.207336 686.180725,710.211487 686.576233,710.215637 
	C686.577820,710.051453 686.590332,709.744629 686.579346,709.743835 
	C686.185669,709.713501 685.789734,709.711853 685.389587,710.203186 
z"/>
<path fill="#1DB5C1" opacity="1.000000" stroke="none" 
	d="
M330.176086,336.605011 
	C328.357300,333.160095 324.723114,334.861786 322.059143,334.682739 
	C313.925964,334.136292 305.749725,333.995850 297.593994,334.075958 
	C286.358398,334.186340 275.120880,334.539581 263.901520,335.122589 
	C262.866241,335.176392 261.145874,337.620514 261.116425,338.984406 
	C260.886688,349.616333 261.001617,360.255554 260.980042,370.892456 
	C260.978394,371.705261 260.746307,372.517578 260.324341,373.606140 
	C259.966492,361.439636 259.937225,348.996857 259.818329,336.554901 
	C259.794250,334.040192 260.692261,333.040466 263.304626,333.049652 
	C284.548767,333.124420 305.793732,333.052338 327.036652,333.232239 
	C328.122650,333.241425 329.192596,335.149353 330.176086,336.605011 
z"/>
<path fill="#145F86" opacity="1.000000" stroke="none" 
	d="
M661.000000,731.011780 
	C662.361816,730.998657 663.723633,730.985535 665.492493,730.974731 
	C646.333557,738.354065 626.041870,741.001282 605.294006,739.419373 
	C596.065979,738.715698 586.937805,736.703491 577.442017,735.101379 
	C578.229309,734.914856 579.338867,734.912109 581.170959,734.946655 
	C583.723999,735.032043 585.576233,734.916016 587.381226,735.155701 
	C596.595825,736.379639 605.765991,738.204163 615.016907,738.791016 
	C620.696533,739.151367 626.487610,737.182373 632.238525,737.116638 
	C642.294617,737.001587 651.761047,734.682922 661.000000,731.011780 
z"/>
<path fill="#035890" opacity="1.000000" stroke="none" 
	d="
M512.763184,416.401917 
	C513.502380,416.538208 513.925232,416.784271 514.364746,416.995911 
	C518.204712,418.844910 522.179565,419.151550 525.531067,417.865234 
	C525.869263,418.221741 526.207520,418.578217 526.545715,418.934723 
	C523.706787,421.440277 520.867920,423.945831 517.888184,426.575684 
	C514.526672,424.838623 511.027985,423.030670 507.200562,421.079468 
	C508.732788,419.456085 510.593719,417.975891 512.763184,416.401917 
z"/>
<path fill="#035890" opacity="1.000000" stroke="none" 
	d="
M526.054565,408.006622 
	C527.665710,409.032013 529.244995,410.044403 530.824280,411.056793 
	C529.325012,412.585693 527.944885,415.207245 526.298523,415.386719 
	C523.845398,415.654144 521.204285,414.198151 518.358276,413.250214 
	C520.047058,411.671844 522.020691,410.318787 524.597595,408.879242 
	C525.466370,408.547729 525.731812,408.302673 525.997253,408.057617 
	C525.997253,408.057587 526.022705,407.993622 526.054565,408.006622 
z"/>
<path fill="#03609A" opacity="1.000000" stroke="none" 
	d="
M675.000244,725.002441 
	C677.848938,722.451782 680.653381,719.847656 683.595703,717.410095 
	C684.019531,717.058960 685.711060,717.344971 685.785461,717.617432 
	C686.135437,718.899475 686.126038,720.279541 686.156860,721.992493 
	C683.933838,723.513000 681.798706,724.665649 679.068604,725.589355 
	C677.315796,725.241089 676.158020,725.121765 675.000244,725.002441 
z"/>
<path fill="#1BACBE" opacity="1.000000" stroke="none" 
	d="
M259.963898,425.584778 
	C260.349152,425.697174 260.910858,426.258698 260.908722,426.818054 
	C260.852264,441.651886 260.737671,456.485504 260.338623,471.596527 
	C259.988739,456.593567 259.933167,441.313263 259.963898,425.584778 
z"/>
<path fill="#145F86" opacity="1.000000" stroke="none" 
	d="
M554.983704,725.026855 
	C556.763062,726.305908 558.542358,727.584900 560.983887,728.951172 
	C562.462158,729.642578 563.278076,730.246704 564.071411,730.886963 
	C564.048828,730.922974 564.004211,730.995422 564.004211,730.995422 
	C559.307861,729.263733 554.611572,727.532043 549.678101,725.517212 
	C549.701660,725.181213 549.962341,725.128418 551.015503,725.038574 
	C552.866638,725.010010 553.925171,725.018433 554.983704,725.026855 
z"/>
<path fill="#145F86" opacity="1.000000" stroke="none" 
	d="
M572.985352,731.017090 
	C573.447083,731.651428 573.908813,732.285767 575.020874,732.964111 
	C576.109192,733.011902 576.547180,733.015747 576.985168,733.019531 
	C576.996216,733.438782 577.007324,733.858032 577.030090,734.591675 
	C572.883606,733.750977 568.725403,732.595947 564.285706,731.218201 
	C564.004211,730.995422 564.048828,730.922974 564.513062,730.925110 
	C567.646606,730.957214 570.315979,730.987122 572.985352,731.017090 
z"/>
<path fill="#035890" opacity="1.000000" stroke="none" 
	d="
M536.707642,402.210999 
	C537.454163,403.351929 537.873535,404.519806 538.292969,405.687683 
	C536.272034,405.607147 534.251038,405.526611 532.068115,405.105347 
	C533.397583,403.922394 534.889038,403.080170 536.707642,402.210999 
z"/>
<path fill="#035A93" opacity="1.000000" stroke="none" 
	d="
M674.844482,725.305115 
	C676.158020,725.121765 677.315796,725.241089 678.722046,725.605225 
	C676.559387,726.895813 674.148132,727.941589 671.372498,728.994019 
	C672.234985,727.869690 673.461853,726.738708 674.844482,725.305115 
z"/>
<path fill="#04BEFC" opacity="1.000000" stroke="none" 
	d="
M330.170227,510.562866 
	C329.852936,507.526642 329.642578,504.041199 329.731018,500.277069 
	C330.112274,503.370148 330.194702,506.741852 330.170227,510.562866 
z"/>
<path fill="#035C95" opacity="1.000000" stroke="none" 
	d="
M711.100464,413.586182 
	C709.561951,413.016632 707.947754,412.110535 706.359619,410.857269 
	C707.932007,411.423279 709.478333,412.336487 711.100464,413.586182 
z"/>
<path fill="#145F86" opacity="1.000000" stroke="none" 
	d="
M545.016602,723.341187 
	C546.153748,723.490845 547.508423,723.903137 548.929565,724.689331 
	C547.742004,724.576843 546.488098,724.090393 545.016602,723.341187 
z"/>
<path fill="#035890" opacity="1.000000" stroke="none" 
	d="
M477.746704,450.194885 
	C477.548553,451.010162 477.065277,451.945587 476.231628,452.903748 
	C476.408051,452.055969 476.934814,451.185516 477.746704,450.194885 
z"/>
<path fill="#626067" opacity="1.000000" stroke="none" 
	d="
M713.013794,1023.074829 
	C712.674194,1023.370728 712.109802,1023.527222 711.151611,1023.449951 
	C711.434814,1023.122498 712.111877,1023.028931 713.013794,1023.074829 
z"/>
<path fill="#626067" opacity="1.000000" stroke="none" 
	d="
M472.675140,1023.060791 
	C472.381500,1023.374878 471.780762,1023.590820 470.899323,1023.594238 
	C471.201752,1023.242004 471.784882,1023.102356 472.675140,1023.060791 
z"/>
<path fill="#626067" opacity="1.000000" stroke="none" 
	d="
M435.189117,1023.245972 
	C434.780243,1023.596069 434.144257,1023.719727 433.048553,1023.654968 
	C433.379883,1023.317566 434.170959,1023.168518 435.189117,1023.245972 
z"/>
<path fill="#035890" opacity="1.000000" stroke="none" 
	d="
M543.692017,399.072815 
	C543.511353,399.382385 543.040527,399.676666 542.278442,399.982300 
	C542.458679,399.681610 542.930298,399.369568 543.692017,399.072815 
z"/>
<path fill="#626067" opacity="1.000000" stroke="none" 
	d="
M393.181091,1023.229126 
	C392.774261,1023.581299 392.140778,1023.709412 391.049408,1023.645264 
	C391.379181,1023.303772 392.166809,1023.154419 393.181091,1023.229126 
z"/>
<path fill="#626067" opacity="1.000000" stroke="none" 
	d="
M339.172333,1023.190063 
	C338.768585,1023.547607 338.138550,1023.684265 337.055023,1023.618042 
	C337.383026,1023.266541 338.164551,1023.117920 339.172333,1023.190063 
z"/>
<path fill="#626067" opacity="1.000000" stroke="none" 
	d="
M323.119751,1023.133667 
	C322.737091,1023.416199 322.110168,1023.511719 321.248779,1023.355835 
	C321.634705,1023.051880 322.255127,1022.999268 323.119751,1023.133667 
z"/>
<path fill="#626067" opacity="1.000000" stroke="none" 
	d="
M315.162476,1023.197144 
	C314.763000,1023.547424 314.137604,1023.682434 313.063263,1023.613098 
	C313.388397,1023.266479 314.162476,1023.124146 315.162476,1023.197144 
z"/>
<path fill="#626067" opacity="1.000000" stroke="none" 
	d="
M307.159973,1023.171265 
	C306.762726,1023.521057 306.141571,1023.659180 305.079224,1023.579895 
	C305.404053,1023.228210 306.170074,1023.093872 307.159973,1023.171265 
z"/>
<path fill="#035A93" opacity="1.000000" stroke="none" 
	d="
M669.311829,729.877991 
	C669.494629,729.582581 669.962280,729.309082 670.713135,729.020569 
	C670.529724,729.303650 670.063232,729.601807 669.311829,729.877991 
z"/>
<path fill="#56525B" opacity="1.000000" stroke="none" 
	d="
M274.676422,1022.994507 
	C274.430450,1023.248108 273.859528,1023.383484 273.144714,1023.298828 
	C273.451019,1023.011292 273.901276,1022.943787 274.676422,1022.994507 
z"/>
<path fill="#035890" opacity="1.000000" stroke="none" 
	d="
M530.723999,405.228516 
	C530.825012,405.512421 530.607422,405.719147 530.092529,405.901093 
	C529.956543,405.615021 530.159912,405.373383 530.723999,405.228516 
z"/>
<path fill="#03558B" opacity="1.000000" stroke="none" 
	d="
M525.712036,408.078064 
	C525.731812,408.302673 525.466370,408.547729 524.928284,408.843567 
	C524.912781,408.629089 525.169800,408.363800 525.712036,408.078064 
z"/>
<path fill="#626067" opacity="1.000000" stroke="none" 
	d="
M483.262207,1023.204529 
	C483.109650,1023.457764 482.762146,1023.530396 482.217712,1023.390869 
	C482.369629,1023.127197 482.718445,1023.075500 483.262207,1023.204529 
z"/>
<path fill="#626067" opacity="1.000000" stroke="none" 
	d="
M479.744812,1023.095215 
	C479.720306,1023.276672 479.452911,1023.371887 479.097961,1023.315918 
	C479.174255,1023.112854 479.338074,1023.060974 479.744812,1023.095215 
z"/>
<path fill="#626067" opacity="1.000000" stroke="none" 
	d="
M403.240540,1023.160156 
	C403.091370,1023.414246 402.747650,1023.493591 402.209717,1023.356506 
	C402.358978,1023.088562 402.702484,1023.037048 403.240540,1023.160156 
z"/>
<path fill="#626067" opacity="1.000000" stroke="none" 
	d="
M399.731445,1023.055054 
	C399.669525,1023.335693 399.350800,1023.528564 398.793579,1023.539917 
	C398.861633,1023.227966 399.168152,1023.097656 399.731445,1023.055054 
z"/>
<path fill="#035890" opacity="1.000000" stroke="none" 
	d="
M479.655121,447.881622 
	C479.750214,448.084869 479.592316,448.401245 479.196808,448.847778 
	C479.106842,448.650208 479.254456,448.322479 479.655121,447.881622 
z"/>
<path fill="#035890" opacity="1.000000" stroke="none" 
	d="
M478.731689,449.042114 
	C478.905853,449.285736 478.743805,449.557587 478.280884,449.896118 
	C478.211914,449.720978 478.350403,449.423492 478.731689,449.042114 
z"/>
<path fill="#035890" opacity="1.000000" stroke="none" 
	d="
M475.686523,452.966003 
	C475.779175,453.164062 475.622437,453.455994 475.245789,453.872559 
	C475.162964,453.684723 475.300049,453.372314 475.686523,452.966003 
z"/>
<path fill="#626067" opacity="1.000000" stroke="none" 
	d="
M298.728149,1023.003357 
	C298.680908,1023.291199 298.366058,1023.502075 297.799591,1023.543579 
	C297.852142,1023.225037 298.156342,1023.075745 298.728149,1023.003357 
z"/>
<path fill="#626067" opacity="1.000000" stroke="none" 
	d="
M296.447815,1023.255127 
	C296.313568,1023.572510 295.964539,1023.645020 295.092285,1023.602295 
	C295.123718,1023.328125 295.678375,1023.169128 296.447815,1023.255127 
z"/>
<path fill="#04BEFC" opacity="1.000000" stroke="none" 
	d="
M329.422546,495.255066 
	C329.135498,495.129395 329.125000,494.860168 329.154297,494.187744 
	C329.362396,494.226868 329.530762,494.669220 329.422546,495.255066 
z"/>
<path fill="#04BEFC" opacity="1.000000" stroke="none" 
	d="
M329.432129,497.239014 
	C329.129517,497.098694 329.117126,496.798523 329.123901,496.047577 
	C329.336182,496.090912 329.529266,496.585052 329.432129,497.239014 
z"/>
<path fill="#04BEFC" opacity="1.000000" stroke="none" 
	d="
M330.056091,498.686951 
	C329.759918,498.726440 329.487976,498.448608 329.169495,497.874390 
	C329.442108,497.841888 329.761230,498.105743 330.056091,498.686951 
z"/>
<path fill="#03ACFD" opacity="1.000000" stroke="none" 
	d="
M279.776184,613.165283 
	C280.064087,611.745605 280.625214,609.633240 281.091339,609.653992 
	C282.977997,609.738037 284.835480,610.478455 286.665741,611.598328 
	C284.606049,613.424133 283.177917,616.781738 279.776184,613.165283 
z"/>
<path fill="#FEFEFE" opacity="1.000000" stroke="none" 
	d="
M688.971436,683.627747 
	C688.317566,684.190796 687.831543,684.455505 686.856445,685.019409 
	C684.936462,686.324524 683.505554,687.330444 681.779602,688.415527 
	C680.302612,689.263245 679.120667,690.031799 677.636597,690.846191 
	C676.859558,691.242737 676.384766,691.593506 675.930969,691.955933 
	C675.952026,691.967590 675.936951,691.921082 675.580994,691.968628 
	C666.150757,695.678650 657.308350,700.141785 647.957642,702.849731 
	C622.473572,710.230042 597.074463,708.593384 572.013855,700.251953 
	C548.388489,691.089844 527.795288,677.312622 512.388000,657.196350 
	C472.921051,605.667053 464.843872,549.736694 491.189056,489.023804 
	C491.633636,487.286652 491.763184,486.139923 491.892731,484.993195 
	C492.887482,483.960846 493.882202,482.928497 495.298889,481.405518 
	C496.521942,479.034149 497.323059,477.153381 498.124176,475.272583 
	C498.124176,475.272583 498.597809,475.169189 499.065094,475.062988 
	C499.624725,474.644287 499.717041,474.331787 499.809357,474.019318 
	C499.919678,473.645264 500.030029,473.271240 500.436157,472.571655 
	C501.262054,471.735718 501.792206,471.225281 502.322327,470.714844 
	C503.656677,469.107697 504.991028,467.500549 506.770782,465.456085 
	C508.843384,463.025696 510.470612,461.032654 512.097778,459.039612 
	C514.347900,456.912201 516.597961,454.784729 519.289490,452.240479 
	C523.510132,448.615967 527.289307,445.408264 531.068542,442.200531 
	C531.598938,441.949982 532.129395,441.699402 533.099854,441.173340 
	C533.769714,440.626617 533.999695,440.355408 534.229614,440.084198 
	C534.229614,440.084198 534.689270,440.025909 534.842102,439.851624 
	C553.904541,427.782715 574.077209,419.349091 596.485962,416.778564 
	C619.462341,414.142914 641.890259,416.084808 664.219360,424.426270 
	C665.182495,424.776398 665.592957,424.862885 666.003418,424.949402 
	C666.124939,425.212921 666.323486,425.390015 666.803101,425.486328 
	C675.740967,430.300262 684.474854,435.108582 693.725342,440.268433 
	C696.458496,442.129730 698.675049,443.639465 700.891602,445.149200 
	C706.730957,450.672333 712.570251,456.195435 718.760071,462.123566 
	C719.383118,462.730042 719.655762,462.931519 719.928345,463.132965 
	C720.821045,464.292725 721.713684,465.452484 722.867004,466.792603 
	C735.824585,483.568878 745.273376,501.868347 748.914307,522.471680 
	C760.430725,587.641052 742.232605,642.036743 688.971436,683.627747 
z"/>
<path fill="#035A93" opacity="1.000000" stroke="none" 
	d="
M571.999878,700.616577 
	C597.074463,708.593384 622.473572,710.230042 647.957642,702.849731 
	C657.308350,700.141785 666.150757,695.678650 675.605103,692.325806 
	C677.981812,697.237244 679.647339,692.909058 681.293030,692.316528 
	C683.353821,691.574585 685.021606,690.283875 682.074707,688.336304 
	C683.505554,687.330444 684.936462,686.324524 686.683472,685.244812 
	C687.093079,687.409363 686.665588,689.830017 687.373413,691.853394 
	C689.936401,699.179688 686.362427,704.008240 680.823608,708.738403 
	C679.903442,709.719727 679.450500,710.358643 678.997559,710.997559 
	C676.337402,712.708191 673.458679,714.297424 674.967468,718.985718 
	C674.998779,720.108704 674.998169,720.553162 674.997559,720.997559 
	C673.419739,721.670532 671.893127,722.529968 670.254089,722.979919 
	C666.116699,724.115845 661.770020,724.864014 661.000610,730.628418 
	C651.761047,734.682922 642.294617,737.001587 632.238525,737.116638 
	C626.487610,737.182373 620.696533,739.151367 615.016907,738.791016 
	C605.765991,738.204163 596.595825,736.379639 587.381226,735.155701 
	C585.576233,734.916016 583.723999,735.032043 581.452942,734.967651 
	C580.421387,732.101318 579.830505,729.251282 579.091064,725.684692 
	C580.556274,723.856140 582.910034,721.128235 585.018311,718.222229 
	C586.739380,715.849915 586.438293,713.793579 583.226379,713.071167 
	C580.743164,712.512695 578.206116,712.193604 575.361084,711.711853 
	C575.530151,708.180237 568.940857,706.092346 571.999878,700.616577 
z"/>
<path fill="#035890" opacity="1.000000" stroke="none" 
	d="
M531.048523,441.804504 
	C527.289307,445.408264 523.510132,448.615967 519.414978,451.929993 
	C515.024597,449.871918 517.849487,446.803375 518.262878,444.222351 
	C518.684631,441.589050 519.821533,439.070251 520.074890,436.297546 
	C523.634155,432.869995 529.776611,435.696655 531.048523,441.804504 
z"/>
<path fill="#035A93" opacity="1.000000" stroke="none" 
	d="
M573.044800,730.666382 
	C570.315979,730.987122 567.646606,730.957214 564.535645,730.889038 
	C563.278076,730.246704 562.462158,729.642578 561.332886,729.000061 
	C562.076660,724.969177 563.281616,721.295593 568.732178,721.852600 
	C569.769348,721.958496 570.969666,720.467773 572.205750,719.639221 
	C574.273132,722.919250 578.569031,726.105591 573.044800,730.666382 
z"/>
<path fill="#035890" opacity="1.000000" stroke="none" 
	d="
M511.654541,459.027527 
	C510.470612,461.032654 508.843384,463.025696 506.935303,465.147064 
	C505.151733,464.342499 503.648987,463.409607 502.146271,462.476746 
	C503.854309,461.318512 505.455963,459.922607 507.310791,459.092224 
	C508.403412,458.603058 509.897705,459.010986 511.654541,459.027527 
z"/>
<path fill="#035890" opacity="1.000000" stroke="none" 
	d="
M498.064850,474.911255 
	C497.323059,477.153381 496.521942,479.034149 495.434082,481.126831 
	C494.802612,478.920074 493.662811,476.262817 494.300049,474.138763 
	C495.250732,470.970367 497.004150,471.928101 498.064850,474.911255 
z"/>
<path fill="#035A93" opacity="1.000000" stroke="none" 
	d="
M540.930969,721.044678 
	C541.093506,719.880005 541.274170,718.660339 541.516052,717.027832 
	C543.492188,718.067505 545.024719,718.873779 546.557190,719.680054 
	C546.561646,720.007690 546.566101,720.335327 546.570496,720.662964 
	C544.947388,720.786194 543.324341,720.909485 541.286133,721.054810 
	C540.871094,721.076904 540.949097,720.989746 540.930969,721.044678 
z"/>
<path fill="#035890" opacity="1.000000" stroke="none" 
	d="
M491.508667,484.995605 
	C491.763184,486.139923 491.633636,487.286652 491.234741,488.663513 
	C489.876770,487.949127 488.788239,487.004578 487.082886,485.524841 
	C488.660614,485.319214 489.892609,485.158630 491.508667,484.995605 
z"/>
<path fill="#035890" opacity="1.000000" stroke="none" 
	d="
M502.178955,470.361877 
	C501.792206,471.225281 501.262054,471.735718 500.432251,472.277344 
	C499.912628,471.113190 499.692657,469.917786 499.472687,468.722412 
	C500.326965,469.151276 501.181244,469.580078 502.178955,470.361877 
z"/>
<path fill="#035890" opacity="1.000000" stroke="none" 
	d="
M502.851257,433.678833 
	C502.212128,433.704803 501.511108,433.512329 501.151581,433.052704 
	C501.008270,432.869568 501.619904,432.095856 501.887848,431.590973 
	C502.234009,432.178406 502.580170,432.765808 502.851257,433.678833 
z"/>
<path fill="#035A93" opacity="1.000000" stroke="none" 
	d="
M565.379639,704.507751 
	C564.982483,703.712402 564.880798,703.051941 564.779175,702.391418 
	C565.349854,702.460693 565.920532,702.529907 566.491272,702.599182 
	C566.219238,703.280334 565.947205,703.961426 565.379639,704.507751 
z"/>
<path fill="#035A93" opacity="1.000000" stroke="none" 
	d="
M554.932007,724.676392 
	C553.925171,725.018433 552.866638,725.010010 551.411621,724.990723 
	C551.867981,722.188354 553.216064,722.322937 554.932007,724.676392 
z"/>
<path fill="#035890" opacity="1.000000" stroke="none" 
	d="
M526.400513,430.999268 
	C527.066040,430.334808 527.780334,429.993317 528.494690,429.651825 
	C528.578308,430.091003 528.661865,430.530182 528.745422,430.969360 
	C527.980103,431.086975 527.214722,431.204620 526.400513,430.999268 
z"/>
<path fill="#035890" opacity="1.000000" stroke="none" 
	d="
M540.808655,411.202637 
	C541.053833,411.764252 541.000183,412.264435 540.946533,412.764587 
	C540.497498,412.650787 540.048584,412.536987 539.599609,412.423218 
	C539.903015,411.995911 540.206421,411.568604 540.808655,411.202637 
z"/>
<path fill="#035A93" opacity="1.000000" stroke="none" 
	d="
M557.605957,719.531616 
	C558.058533,719.648438 558.336121,719.933472 558.592163,720.236511 
	C558.598755,720.244324 558.370178,720.450745 558.251221,720.564514 
	C557.976807,720.277100 557.702454,719.989624 557.605957,719.531616 
z"/>
<path fill="#035A93" opacity="1.000000" stroke="none" 
	d="
M576.954102,732.717651 
	C576.547180,733.015747 576.109192,733.011902 575.342896,733.001587 
	C575.246155,732.475220 575.477661,731.955261 575.709167,731.435364 
	C576.113770,731.762146 576.518433,732.088989 576.954102,732.717651 
z"/>
<path fill="#035890" opacity="1.000000" stroke="none" 
	d="
M559.532654,410.393188 
	C559.649109,409.941559 559.933411,409.664673 560.235779,409.409180 
	C560.243530,409.402649 560.449463,409.630768 560.562988,409.749451 
	C560.276306,410.023193 559.989624,410.296967 559.532654,410.393188 
z"/>
<path fill="#035890" opacity="1.000000" stroke="none" 
	d="
M508.391113,428.465637 
	C507.941498,428.349609 507.665863,428.066467 507.411560,427.765289 
	C507.405029,427.757538 507.632172,427.552521 507.750366,427.439514 
	C508.022888,427.725067 508.295410,428.010590 508.391113,428.465637 
z"/>
<path fill="#035890" opacity="1.000000" stroke="none" 
	d="
M509.607025,445.532715 
	C510.058411,445.649170 510.335205,445.933350 510.590576,446.235687 
	C510.597107,446.243469 510.369141,446.449341 510.250549,446.562805 
	C509.976868,446.276154 509.703247,445.989532 509.607025,445.532715 
z"/>
<path fill="#035890" opacity="1.000000" stroke="none" 
	d="
M511.954529,454.608521 
	C511.711670,454.210388 511.713379,453.814240 511.743774,453.420319 
	C511.744629,453.409241 512.051697,453.421753 512.215942,453.423218 
	C512.211670,453.819092 512.207397,454.214966 511.954529,454.608521 
z"/>
<path fill="#035890" opacity="1.000000" stroke="none" 
	d="
M494.045471,459.391754 
	C494.288391,459.789795 494.286682,460.185791 494.256348,460.579620 
	C494.255493,460.590668 493.948547,460.578156 493.784302,460.576630 
	C493.788483,460.180908 493.792664,459.785156 494.045471,459.391754 
z"/>
<path fill="#035890" opacity="1.000000" stroke="none" 
	d="
M495.606995,465.532684 
	C496.058502,465.649139 496.335358,465.933411 496.590820,466.235748 
	C496.597351,466.243500 496.369293,466.449432 496.250641,466.562897 
	C495.976929,466.276215 495.703217,465.989563 495.606995,465.532684 
z"/>
<path fill="#035890" opacity="1.000000" stroke="none" 
	d="
M487.954651,470.608337 
	C487.711731,470.210266 487.713440,469.814270 487.743805,469.420441 
	C487.744659,469.409363 488.051575,469.421875 488.215790,469.423401 
	C488.211609,469.819183 488.207428,470.214966 487.954651,470.608337 
z"/>
<path fill="#035890" opacity="1.000000" stroke="none" 
	d="
M485.954498,494.608704 
	C485.711456,494.210419 485.713165,493.814117 485.743530,493.420013 
	C485.744385,493.408936 486.051575,493.421448 486.215912,493.422943 
	C486.211670,493.818970 486.207458,494.214996 485.954498,494.608704 
z"/>
<path fill="#035A93" opacity="1.000000" stroke="none" 
	d="
M559.389648,699.954651 
	C559.789062,699.710938 560.186401,699.712585 560.581604,699.742981 
	C560.592712,699.743835 560.580139,700.051819 560.578613,700.216553 
	C560.181519,700.212402 559.784424,700.208252 559.389648,699.954651 
z"/>
<path fill="#035A93" opacity="1.000000" stroke="none" 
	d="
M568.045227,717.390137 
	C568.288818,717.789185 568.287170,718.186218 568.256775,718.581116 
	C568.255920,718.592285 567.948181,718.579773 567.783508,718.578308 
	C567.787659,718.181458 567.791809,717.784668 568.045227,717.390137 
z"/>
<path fill="#035890" opacity="1.000000" stroke="none" 
	d="
M533.972412,440.145569 
	C533.999695,440.355408 533.769714,440.626617 533.266968,440.925812 
	C533.234497,440.704834 533.474854,440.455872 533.972412,440.145569 
z"/>
<path fill="#035890" opacity="1.000000" stroke="none" 
	d="
M499.631287,474.123444 
	C499.717041,474.331787 499.624725,474.644287 499.270142,474.933716 
	C499.086517,474.637451 499.234955,474.409729 499.631287,474.123444 
z"/>
<path fill="#04BEFC" opacity="1.000000" stroke="none" 
	d="
M267.205444,399.798157 
	C267.569061,399.196228 267.995453,398.893555 268.421844,398.590881 
	C268.536743,399.038086 268.651672,399.485260 268.766571,399.932495 
	C268.267120,399.987457 267.767670,400.042450 267.205444,399.798157 
z"/>
<path fill="#035C95" opacity="1.000000" stroke="none" 
	d="
M665.796509,424.711731 
	C665.592957,424.862885 665.182495,424.776398 664.576538,424.434235 
	C664.783936,424.277069 665.186768,424.375549 665.796509,424.711731 
z"/>
<path fill="#03609A" opacity="1.000000" stroke="none" 
	d="
M700.921997,444.753235 
	C698.675049,443.639465 696.458496,442.129730 694.059814,440.339081 
	C695.112793,438.950043 696.347778,437.841888 697.582825,436.733734 
	C697.931885,437.131866 698.280884,437.529968 698.629944,437.928101 
	C698.002747,438.516754 697.375549,439.105408 697.289429,439.186218 
	C698.556885,440.975494 699.754700,442.666382 700.921997,444.753235 
z"/>
<path fill="#03609A" opacity="1.000000" stroke="none" 
	d="
M710.997559,451.002075 
	C710.293701,450.050842 709.592224,449.097534 708.890808,448.144226 
	C709.357178,447.910828 709.823486,447.677460 710.289795,447.444061 
	C710.526367,448.384827 710.762878,449.325592 711.002136,450.631012 
	C711.004883,450.995667 711.000000,451.000000 710.997559,451.002075 
z"/>
<path fill="#03609A" opacity="1.000000" stroke="none" 
	d="
M711.532837,438.392822 
	C711.649292,437.941406 711.933472,437.664673 712.235779,437.409302 
	C712.243530,437.402802 712.449341,437.630798 712.562744,437.749451 
	C712.276184,438.023071 711.989563,438.296692 711.532837,438.392822 
z"/>
<path fill="#03609A" opacity="1.000000" stroke="none" 
	d="
M719.853394,462.891296 
	C719.655762,462.931519 719.383118,462.730042 719.061279,462.273132 
	C719.267517,462.228333 719.523010,462.438965 719.853394,462.891296 
z"/>
<path fill="#03609A" opacity="1.000000" stroke="none" 
	d="
M679.319092,710.957520 
	C679.450500,710.358643 679.903442,709.719727 680.676941,709.039185 
	C680.545227,709.637512 680.092834,710.277527 679.319092,710.957520 
z"/>
<path fill="#03609A" opacity="1.000000" stroke="none" 
	d="
M675.297058,720.960632 
	C674.998169,720.553162 674.998779,720.108704 675.000854,719.330933 
	C675.521179,719.232239 676.039917,719.466980 676.558655,719.701721 
	C676.237976,720.109070 675.917297,720.516357 675.297058,720.960632 
z"/>
<path fill="#03609A" opacity="1.000000" stroke="none" 
	d="
M685.391846,709.954712 
	C685.789734,709.711853 686.185669,709.713501 686.579346,709.743835 
	C686.590332,709.744629 686.577820,710.051453 686.576294,710.215637 
	C686.180725,710.211487 685.785156,710.207336 685.391846,709.954712 
z"/>
<path fill="#03609A" opacity="1.000000" stroke="none" 
	d="
M681.779541,688.415527 
	C685.021606,690.283875 683.353821,691.574585 681.293030,692.316528 
	C679.647339,692.909058 677.981812,697.237244 675.961060,692.278320 
	C675.936951,691.921082 675.952026,691.967590 676.251221,691.943115 
	C677.013184,691.545898 677.475952,691.173096 677.938721,690.800293 
	C679.120667,690.031799 680.302612,689.263245 681.779541,688.415527 
z"/>
<path fill="#035A93" opacity="1.000000" stroke="none" 
	d="
M677.636597,690.846130 
	C677.475952,691.173096 677.013184,691.545898 676.230103,691.931519 
	C676.384766,691.593506 676.859558,691.242737 677.636597,690.846130 
z"/>
</svg>